# xmcd
#
# Track frame offsets:
#	182
#	17935
#	26752
#	46497
#	60770
#	75477
#	92940
#	103300
#	126772
#	135005
#	159992
#
# Disc length: 2369 seconds
#
# Revision: 0
# Processed by: cddbd v1.4PL0 Copyright (c) Steve Scherf et al.
# Submitted via: dBpowerAMP V4.0
#
DISCID=81093f0b
DTITLE=Sceamin' Jay Hawkins - Real Life
DYEAR=1983
DGENRE=Blues
TTITLE0=Deep in love
TTITLE1=Your kind of love
TTITLE2=Get down france
TTITLE3=All night
TTITLE4=Serving time
TTITLE5=Feast of the mau-mau
TTITLE6=I feel alright
TTITLE7=Poor folks
TTITLE8=Mountain jive
TTITLE9=Constipation blues
TTITLE10=Alligator wine
EXTD=
EXTT0=
EXTT1=
EXTT2=
EXTT3=
EXTT4=
EXTT5=
EXTT6=
EXTT7=
EXTT8=
EXTT9=
EXTT10=
PLAYORDER=
